<svg width="640" height="209" viewBox="0 0 640 209" fill="none" xmlns="http://www.w3.org/2000/svg">
<path fill-rule="evenodd" clip-rule="evenodd" d="M132.175 0C166.168 0.200393 199.762 28.4558 199.762 69.6365C199.762 69.6365 200.762 119.434 198.662 133.261C193.963 164.723 170.468 186.466 138.074 191.976C119.129 195.683 105.194 198.376 96.2143 200.112L96.2142 200.112L96.2111 200.112C91.3551 201.051 87.9489 201.709 85.9837 202.096C83.5841 202.597 72.9862 204 68.387 204C32.7938 204 0.499905 177.348 0 134.363C0 134.363 0 88.4735 0.399924 76.3497C1.5997 44.9882 23.2956 19.6385 64.5877 11.5226C64.5877 11.5226 115.078 1.70334 117.178 1.30255C121.977 0.400786 127.276 0 132.175 0ZM155.97 36.5717L75.9856 52.1022V83.3635L43.9917 89.5756V167.528L123.976 151.998V120.737L155.97 114.525V36.5717ZM123.976 120.737L123.976 74.0452L75.9856 83.3635V130.055L123.976 120.737ZM430.1 61.9482L429 48.0149H400V167.3H432V101.142C431.9 86.106 445 74.1775 460 74.0772C475 73.977 485.9 86.106 486 101.142V167.3H518V96.13C517.8 67.6619 496.4 44.8072 468 45.0077C453.1 45.1079 439.4 51.7237 430.1 61.9482ZM348 6.21487L380 0V31.1746L348 37.3895V6.21487ZM348 48.0149V167.3H380V48.0149H348ZM584.9 201.983L640 48.0149H607L586 107.156L580 125.2L575 107.156L554 48.0149H521L564 167.3L549.3 209L584.9 201.983ZM298 127.204C298 137.028 305.4 141.238 310 141.238C314.6 141.238 318.7 140.636 323 139.233L330 162.288C327 164.293 318 169.305 301 169.305C284 169.305 266.4 156.274 266 134.221C265.7 119.486 265.7 100.44 266 77.0844H245V48.0149H266V22.153L298 15.9381V48.0149H328V77.0844H298V127.204Z" fill="#335DFF"/>
</svg>
