<svg width="120" height="120" viewBox="0 0 120 120" fill="none" xmlns="http://www.w3.org/2000/svg">
<rect width="120" height="120" rx="60" fill="#089FF5"/>
<path d="M67.9094 31.2727H74.7788V71.8239C74.7788 75.4432 74.114 78.5178 72.7844 81.0476C71.4549 83.5774 69.5806 85.4979 67.1616 86.8089C64.7425 88.12 61.8896 88.7756 58.6026 88.7756C55.5004 88.7756 52.7397 88.2124 50.3207 87.0859C47.9016 85.9411 45.9996 84.3161 44.6147 82.2109C43.2298 80.1058 42.5373 77.6037 42.5373 74.7045H49.2958C49.2958 76.3111 49.6928 77.7145 50.4869 78.9148C51.2994 80.0966 52.4073 81.0199 53.8107 81.6847C55.2141 82.3494 56.8114 82.6818 58.6026 82.6818C60.5785 82.6818 62.2589 82.2663 63.6438 81.4354C65.0288 80.6044 66.0813 79.3857 66.8015 77.7791C67.5401 76.1541 67.9094 74.169 67.9094 71.8239V31.2727Z" fill="black"/>
</svg>
